<?xml version="1.0" standalone="no"?>
<!DOCTYPE svg PUBLIC "-//W3C//DTD SVG 20010904//EN"
 "http://www.w3.org/TR/2001/REC-SVG-20010904/DTD/svg10.dtd">
<svg version="1.0" xmlns="http://www.w3.org/2000/svg"
 width="700.000000pt" height="700.000000pt" viewBox="0 0 700.000000 700.000000"
 preserveAspectRatio="xMidYMid meet">
<metadata>
Created by potrace 1.11, written by Peter Selinger 2001-2013
</metadata>
<g transform="translate(0.000000,700.000000) scale(0.100000,-0.100000)"
fill="#000000" stroke="none">
<path d="M2379 6996 c-2 -2 -35 -7 -73 -11 -38 -3 -73 -8 -76 -10 -4 -2 -20
-7 -36 -9 -268 -50 -611 -216 -835 -406 -74 -63 -206 -195 -259 -260 -25 -30
-47 -57 -50 -60 -14 -12 -120 -170 -147 -220 -67 -121 -81 -148 -110 -220 -45
-108 -91 -249 -107 -330 -3 -14 -7 -34 -9 -45 -3 -11 -8 -40 -12 -65 -4 -25
-9 -53 -10 -62 -2 -9 -7 -59 -11 -110 -10 -124 -11 -3257 0 -3377 39 -461 244
-910 556 -1221 287 -284 573 -449 945 -544 61 -15 76 -18 195 -35 39 -6 593
-9 1360 -8 l1295 3 110 27 c394 97 707 269 968 531 99 100 106 108 195 227
108 145 115 168 62 187 -14 4 -255 8 -535 7 l-510 0 -90 -47 c-123 -63 -260
-105 -403 -122 -202 -25 -1972 -27 -2252 -2 -221 19 -423 93 -586 214 -286
211 -449 490 -492 837 -9 74 -9 3085 0 3210 22 304 140 558 362 781 199 199
440 309 721 331 117 9 2119 9 2210 0 147 -14 259 -44 390 -103 55 -26 114 -51
131 -58 22 -8 179 -11 548 -11 625 0 587 -11 483 145 -114 171 -267 329 -442
457 -55 40 -104 77 -110 81 -97 74 -381 198 -570 248 -199 53 -176 52 -1536
53 -696 0 -1268 -1 -1270 -3z"/>
<path d="M2518 5903 c-9 -2 -19 -11 -22 -20 -4 -9 -7 -188 -7 -397 l-1 -380
23 -19 c21 -17 60 -18 765 -15 604 2 745 0 758 -11 14 -12 16 -70 16 -541 0
-469 -2 -529 -16 -541 -12 -10 -93 -13 -370 -13 -304 -1 -356 -3 -364 -16 -13
-20 -13 -780 0 -800 8 -13 60 -15 365 -15 341 0 357 -1 371 -19 12 -17 14
-177 14 -1051 0 -865 2 -1034 14 -1050 13 -18 32 -19 400 -19 354 0 387 1 403
17 17 16 18 82 18 1057 0 825 3 1042 13 1052 9 9 91 12 362 11 301 -2 352 0
365 13 18 18 16 -23 17 427 0 275 -3 371 -12 382 -10 13 -65 15 -366 13 -271
-1 -357 1 -367 11 -18 18 -18 1064 1 1083 10 10 156 13 733 13 601 0 721 2
728 14 5 7 9 191 9 408 -1 369 -2 394 -19 403 -17 10 -3795 13 -3831 3z"/>
</g>
</svg>
