<svg xmlns="http://www.w3.org/2000/svg" viewBox="0 0 2266.6 1877.7" fill="#3577ae" xmlns:v="https://vecta.io/nano"><path d="M1863.5 773.1l-76.7-4.7c-14.5-1.1-29.1-2.5-43.5-4.9-14-2.3-27.9-5.7-41.7-9.3-21.1-5.6-42.4-10.8-63-18.2-18.4-6.6-36.2-15-53.6-24-23.4-12-46.1-25.2-66.7-41.7s-39.5-34.6-55.8-55.5c-26.9-34.6-45.5-73.3-58.1-115-3.3-11-4.6-22.7-7.1-34-7.2-33.5-6.2-67.5-5.4-101.4.3-11.8 3-23.7 5.7-35.3 4.7-19.6 8.9-39.6 15.8-58.5 20.4-56.3 50.3-107.2 92.9-149.8 36.9-36.9 79.9-65 128.8-83.6 22.1-8.4 44.9-14.4 68.2-17.7 22-3.1 44.2-4.5 66.6-3.7 33.7 1.2 66.7 6.4 99.1 15.1l66.1 18.2c7 2 13.6 5.1 20.3 8.1 20 9.1 40.4 17.2 59.6 27.8 29.6 16.5 58.3 34.3 84.1 56.9 31.1 27.3 57.3 58.4 79.7 92.9 17.4 26.9 30.3 56 39.4 86.8 6.6 22.4 10.5 45.1 13.5 68.2 1.5 11.8 4.6 23.3 3.7 35.3-.2 2 .5 4.2-.2 6-5 11.8-2.7 24.3-3.9 36.5-1.5 14.5-4.4 28.7-8 42.9-13 51.9-37.1 98-71.2 138.9-31.7 37.9-70.7 66.2-115.4 87.1-30 14.1-61.5 23.6-93.9 28.8-26.1 4.5-52.4 9.8-79.3 7.8zM1790 150.2v.5c-12.3 0-24.7-.6-37 .2-13.2.9-26.3 3.7-39.5 4.5-20.6 1.3-41.1 2.7-60.6 10.4-26 10.3-51.3 22.3-73.2 40-10.3 8.3-20 17.5-29.5 26.9-5.3 5.3-4.3 7.7 2.8 10.6 1.8.8 3.7 1.4 5.6 2.1 15.5 6.2 32.1 7.7 48.3 11.3 7.1 1.6 14.2 3.8 21.4 4.3 21.7 1.5 41.4 9.3 60.4 18.7 13 6.4 24.9 15.1 37.2 22.9 6.7 4.3 13.6 8.4 19.8 13.4 14.6 11.6 28.2 24.1 41.2 37.6 17.5 18.2 32 38.1 43.6 60.4 3.8 7.4 7.2 15 10.4 22.6 8.5 20.5 18.3 40.7 24.8 61.9 9.6 31.3 17 63.3 24.9 95.2 3.5 14.1 5.8 28.5 8.7 42.8 2 10.1 2.8 11.5 13.1 10.4 16.8-1.7 34-2.6 50.1-7.1 56.2-15.7 98.5-49.9 127.4-100.5 15.3-26.8 24.1-55.8 27.9-86.6 2.6-20.9 3.1-41.7-.3-62.4-1-5.9-2-11.8-3.3-17.6-2.7-12.3-4.8-24.7-8.7-36.6-7.3-22.6-18.6-43.3-32-62.9-12.1-17.7-26.1-33.7-43-46.9-11.8-9.2-24-17.9-36.6-25.9-11.2-7.1-22.6-14.6-34.9-19-23.7-8.4-47-18.3-72.1-22.1-4.6-.7-9.4-.4-13.8-1.6-21-5.6-42.6-6.3-64.1-7.3-6.3-.5-12.6-.2-19-.2zM881.2 428.9c1.8 38.5-6.7 74.8-20.7 110.6-9.5 24.2-22.7 45.8-37.3 66.8-15.9 22.8-35.6 42.3-57.1 59.7-31.5 25.5-65.7 46.4-103.8 60.6-23.3 8.7-47.1 15.5-71.5 20.7-37.5 8-75.3 9.1-113.1 7.2-27.1-1.4-54.1-4.8-80.8-10.5-6.7-1.4-13-5.1-19.6-7.3-23.6-7.7-47.5-14.6-70.8-23.1-16.2-5.9-31.6-13.7-47.4-20.7-1.2-.5-2.3-1.3-3.6-1.8-23.9-8.9-45-23.1-65.5-37.6-19.2-13.6-37.9-27.9-54.2-45.4-14.3-15.4-27.8-31.4-40.2-48.2-7.4-10-12.4-21.9-17.6-33.4C67.2 502.8 60.2 478 57.8 452c-1.6-17 1.2-56.6 4.8-73.5 9.6-44.9 31.4-83.6 58.7-119.8 32.8-43.6 72.9-79.2 117.5-110.1 28.8-19.9 58.6-38.1 90.2-53.1 33-15.6 66.8-29.3 102.5-38 20.6-5 41.1-10.5 62.4-11.2 7.9-.3 15.8-2.4 23.7-2.3 23.5.3 45.5 5.3 66.9 16.2 22 11.1 44 21.9 64.9 35 28.7 18.1 58 35.5 83.5 58 23.9 21.1 48.9 41.5 68.1 67.3 13.1 17.6 26 35.5 36.7 54.6 11.1 19.6 20.8 40.2 28.7 61.3 9.9 26.8 16.7 54.6 14.8 83.6-.1 2.9 0 5.9 0 8.9zm-688.3-10.1L199 458c3.6 26.4 17.7 47.8 33.5 67.9 17.8 22.6 42.2 37 68 49 14.7 6.9 29.6 13.3 44.6 19.6 12.2 5.2 24.6 10.1 37 15 5.6 2.2 8 .6 7.2-4.9-2.5-18.1-4.2-36.3-4.3-54.6 0-4.6-1.9-9.3-1.5-13.8 1.1-12.5 2.9-25 4.6-37.4 2.6-19.5 8.5-38.2 15.6-56.4 14.4-36.6 35.4-69.2 62.1-98.1 18.6-20.2 39.4-38.3 63.2-51.7 37-20.8 75.8-36.9 119.6-36 9.7.2 11-2.4 7-11.6-8.1-18.2-22.7-30.3-39-40.2-17.1-10.4-37-12.1-56.5-13.8-2.3-.2-4.6.4-6.9.7-3.6.4-7.3.8-10.9 1.4-12.1 2.1-24.4 3.2-36.1 6.7-20 6-39.1 14.5-56.9 25.8-9.1 5.8-19.4 9.3-30.2 8.2-14.7-1.5-29.4-4.2-44-6.7-14.8-2.5-29.6-4.6-44.6-3.2-16.2 1.5-30.8 6.9-43.9 17.1-34.5 27.2-59.7 61.2-76.3 101.8-10 24.6-16.6 49.4-17.4 76zM718 1795.7c-1.1-19.6 4.2-36.2 11.2-52.6 11.1-26 20.8-52.5 32.6-78.1 22.6-48.5 45.1-97.1 73.2-142.8 23.4-38 48-75.2 77-109.3 21.4-25.2 44.1-49.2 70.1-69.6 30.4-23.8 62.1-45.7 99.3-58.3 16.6-5.6 32.8-12.6 50.3-15.1 12.5-1.8 25-3.4 37.5-4.6 11.2-1.1 22.5-2.1 33.7-2.1 9.2 0 18.5 1.4 27.6 2.8 13.1 2.1 26.1 4.5 39.1 7.4 14.5 3.2 28.8 7.4 43.3 10.7l54.4 11.6 59 13.5 88.6 21.8c28.5 7.5 56.8 15.4 85 24.1 33.2 10.2 66.3 21.3 97.9 35.9 19.3 8.9 38.7 17.9 56.9 28.7 28.7 16.8 56.2 35.4 80.9 58.1 20.4 18.8 40 38 57.6 59.5 5.4 6.6 12.8 11.6 18.7 18 12.4 13.4 24.3 27.3 36.6 40.9 11.3 12.5 18.7 27.5 25.5 42.6 12.3 27.2 7.5 58-14.6 78.8-2.7 2.5-5.3 5-7.9 7.6-9.5 9.4-20.6 9.8-32.2 5.1-15.5-6.3-29.1-15.6-42.1-26.2-32.7-26.9-62.7-56.7-91.6-87.6-17.1-18.2-34.6-35.9-52.2-53.7-16-16.1-34.1-29.3-53.5-41.3-32-19.9-64.9-37.7-99.6-52.2-18.4-7.7-36.5-16.2-55.3-22.6-25-8.5-49.9-17.6-76-23.1-20.4-4.3-40.4-10.4-60.6-15.5-6.1-1.5-12.4-2.5-18.6-3.4l-58.9-8c-3.9-.5-8-.2-12-.4l-35.8-1.8c-6.6-.2-13.2.6-19.9.9-2.6.2-5.3.6-7.9.7-18.6 1-37.3 1.1-55.8 3.1-13.1 1.4-26 4.8-38.9 8.1-15.1 3.8-30 8.4-44.9 12.8-21.1 6.2-39.1 18-56.8 30.5-35.1 24.6-60.6 57.7-83.7 93-18.1 27.6-33.7 56.5-47.2 86.6l-54.4 119.7c-14 29-29.8 57.2-45.3 85.4-6.3 11.4-14.7 21.4-25.9 28.5-11.6 7.3-26.3 6.4-37.5-1.5-8.8-6.2-14.3-15-18-24.6-5.2-14-11.1-27.9-8.9-42zm562.9-559.4c-19.7-1.3-39.2-1.2-58.1-4.3-19.9-3.2-39.3-9.3-58.8-14.5-31.2-8.3-58.9-24.1-86.4-40.3-29.5-17.4-54.7-40.1-79.9-62.9-28.4-25.7-50.3-56.7-72.1-87.8-27-38.6-48.1-80.4-66.9-123.5-1.6-3.7-3.2-7.3-5-10.9-5.9-11.7-8.5-24.1-10.9-36.9-2-10.4-.3-19.9 1.3-29.5 2-12.5 9.2-23.2 19-30.9 24.3-19.2 50.4-23.9 78.2-9.5 31.6 16.3 57 39.7 75.7 70.4 16.8 27.6 30.7 56.6 44.7 85.7 5.9 12.2 12.5 24.1 19.6 35.7 15.2 24.7 32.2 48.4 53.2 68.4 12.4 11.8 27.3 21.2 41.7 30.7 19.2 12.6 40.8 20.5 62.1 29 21.2 8.4 43.5 11.9 65.6 15.4 18.6 2.9 37.7 3.2 56.6 2.9 11.4-.2 22.9-2.7 33.6-7.9 15.7-7.7 23.3-20.7 25-37.1 1.7-16.7-1.7-32.9-7.9-48.6-19.7-50.3-48.5-95.2-79.8-138.9l-61.8-87.2c-12.4-17.3-25.9-33.8-38-51.3-15.9-22.9-31.1-46.3-46.1-69.9-3.5-5.5-5.1-12.2-6.7-18.6-2-7.9 1.3-11 9.6-9.9 16.1 2.2 30.5 8.8 44.6 16.3 8.5 4.6 16.7 9.8 25.4 13.9 49.6 23.4 95.7 52.6 139.3 85.6 40.5 30.6 77.3 65.5 106.8 107.2 17.6 24.8 31.4 51.9 38.9 81.5 4.3 17.3 8.2 35.2 8.4 52.9.4 43.7-13 83.7-39.5 118.8-32.3 42.8-74.9 71.3-125.3 88.2-16.9 5.7-34.2 10.8-51.8 13.7-18 2.8-36.4 2.8-54.3 4.1z"/></svg>