<svg xmlns="http://www.w3.org/2000/svg" baseProfile="tiny" viewBox="0 0 2702 1245" xmlns:v="https://vecta.io/nano"><path fill="#3578ad" d="M2702 1245.1l-2702 .1s8.1-120 14.4-157.6c19.1-114.4 57.7-221.9 114.2-323.1 73.4-131.8 170.8-243.2 288-337.6C521.3 342.4 636.6 276 761 225.2c148.8-60.7 303.6-96.4 463.7-109.2 69.8-5.6 139.7-6.4 209.7-2.9 62.4 3.1 124.4 9.9 186 20.4 90.4 15.4 178.8 38.5 265 69.7 79.7 28.8 156.4 64 229.8 106.3 67.9 39.1 132 83.6 192.1 134.1 59.3 49.9 113.6 104.6 162.2 164.9 62.3 77.2 113.8 161 152.8 252.3 52.4 122.8 80 250.6 79.7 384.3z"/><path fill="#25557c" d="M1043 897.9c-17 10.7-33.4 22.2-48.3 35.7-15.3 13.8-29.7 28.5-42.3 44.9-18.2 23.6-33.2 49.2-46.1 76-10.4 21.8-16.5 44.7-18.2 68.8-.9 12.7-2.2 25.4-4.7 37.9-3.8 18.7-9.4 36.9-14.9 55.2L860 1245h967s-13.5-27.7-13.7-44c-.1-10.2-2.7-20.3-4.3-30.4-2.5-15.7-4.6-31.6-11.3-46.2-9.3-20.3-16.7-41.3-21-63.1-3.8-19-11-36.1-21.2-52.2-18.6-29.4-40.5-56.2-67.3-78.7-14.3-12-29-23.1-45.1-32.6L1601 875c-.3-2.1-.7-4.2-.9-6.4-1.8-22.3-12.1-40-29.3-53.8-11.6-9.4-24.7-16.1-38.6-21.3-15-5.5-30.3-9.8-46.1-11.7-5 4.6-9.5 9.8-16.5 11.5-.7.2-1.5.9-1.8 1.6-2.9 5.6-8 8.1-13.7 9.9l-.1 60.4c-.8 50.3-36.4 94.3-85.3 105.7-63.2 14.8-125.1-27.1-134.8-91.3-1.7-11.2-1.5-22.5-1.2-33.9.3-15.3.1-30.6.2-45.9-1.1-1-2.4-1.9-3.3-3-2.3-3.2-5-5.4-9.4-5.2-1.9.1-4.3-1.3-5.7-2.8-3.3-3.6-7.7-5.7-11.3-8.8-1 1.2-2.4 1.7-3.9 1.9-24.5 4.2-48.2 11-69.8 23.5-15.1 8.7-27.8 20.1-35.8 36.2-5.3 10.6-7.5 21.8-8.4 33.5"/><path d="M1606 1245v-100.5c0-13.6 13.5-22.8 25.7-17.1 8.5 4 11.2 11.8 11.2 20.6v97H1606zm-539 0l.1-85c0-7 1.6-13.6 7.7-18 5.9-4.3 12.6-4.5 18.9-1.6 7.7 3.5 10.2 10.7 10.2 18.6l.1 86h-37z" fill="#1f4768"/><path d="M1071.8 367l-3.4-39.1c-.1-1.8.4-3.6.4-5.4 0-5.7 1.4-11.4-2.2-16.9-1.7-2.6-1.5-6.4-1.2-9.8 1.1-17.6 1.9-35.2 5-52.5 3.8-21 3.2-42.7 10.4-63.2 5.2-14.7 11.1-28.8 22-40.5 2.9-3.1 5-7 6.2-11.2 9.8-13.3 23.8-22.4 35.3-34.2 8.6-8.9 19.5-14.9 30.5-20.6 9.7-5.1 19.1-10.9 28.5-16.4 13.8-8 29.3-10.9 44.5-14.1 27.9-5.8 56.2-9 84.2-14 19.4-3.4 39.3-1.8 58.4-7.1 12.3-3.3 23.8-8.6 35.3-13.8 3.2-1.5 5.9-4.2 8.9-6.4 2.2-1.6 4.7-3 7.3-1.1 2.8 2.2 2.9 5.4 1.5 8.2-2.1 4.1-4.7 8-7.2 11.9-1.5 2.3-3.6 4.3-4.3 7.2 2.1.7 3.7-.4 5.3-1.1 13.7-6.5 27.6-12.5 39.9-21.6 2-1.5 4.5-2.1 6.9-2.7 2.8-.7 5.4-.8 7.3 1.7 2.1 2.7 2.7 5.8.6 8.8-3.6 5.2-7.6 10.1-12.3 14.4l-9.4 8.5c6.5-.4 11-2.6 15.6-4.7 6.7-3.1 13.6-5.5 20.7-7.1 4-.9 7.7-.4 10.2 3.3 2.6 3.7.2 6.6-1.9 9.4-3.3 4.3-5 9.2-6.9 15.5 4-2.4 7.2-3.8 11-3.1 6.1 1.2 8.8 5.6 6.6 11.4-1.5 3.9-3.3 7.7-6.1 10.8-3.3 3.6-1.8 5.3 1.5 8 11.2 9.2 23.8 16.4 34.8 25.9 5.6 4.8 10.8 9.9 15.2 15.8 1.2 1.6 2.3 3.3 4.1 4.3l8.1 14.8c8.3 15.4 16.4 31 19.3 48.4 3.6 21.6 7.2 43.3 9 65.1.8 9.4 0 19.2.7 28.8 1.7 23.6-1.2 47.2-1.1 70.8 0 3.8-1.2 7.5-1.8 11.3l-23.3-4.2c0-2.2-.2-4.3-.1-6.5.5-8.8-3.2-16.9-4.6-25.4l-5.3-36.5c-2.4-14.3-8.2-27.6-12.8-41.2-.3-1-1.2-2.1-2-2.7-2.6-2-3.8-4.9-5.3-7.7-7.3-14.2-16.3-26.7-30.1-35.8-19.9-13.1-36.8-29.5-49.1-50.2-3-5.1-8.8-6.9-14.2-4.8-8.5 3.4-16.9 7-25.8 9.3-18.5 4.9-37.4 4.7-56.3 5.7-23.1 1.2-46.1 4.2-69.1 5.7-21.3 1.4-42.6 2.5-63.7-1.6-12.9-2.5-26.2-3.9-37.7-10.9-4.5-2.8-7.2-2-9.9 1.8-1 1.4-2 2.7-2.7 4.2-3.2 7.4-8.2 13.7-12.6 20.4-2.1 3.1-5.2 4.7-8.6 3.6-3.3-1.1-4.3.4-5.8 2.7-3.3 5-6.7 9.9-10.5 14.6-2.5 3-6.5 3-9.2 5.8-13.8 14.6-24.1 31.5-31.4 50-8.8 22-12.9 45.4-17.9 68.5-2.4 11-5.5 22-4.9 33.4-8.2 2-16.2 3.7-24.5 4.1zm414.1 414.9c-5 4.6-9.5 9.8-16.5 11.5-.7.2-1.5.9-1.8 1.6-2.9 5.6-8 8.1-13.7 9.9-4 .3-7 1.7-9.2 5.6-2.4 4.2-6.6 6.7-11.5 7.1-2.8.2-4 1.4-4.8 4-2.4 7.5-8.4 11.3-15.5 11.3-8.1 0-15.9.1-23.6 2.8-2 .7-4.4-.2-6.4 1.8-4.5 4.5-10.2 5.3-16.2 3.7-1.4-.4-2.7-1.2-4.3-.4-12.3 5.9-23.9 3.7-34.9-3.6-1.8-1.2-3.3-1.4-5.5-.5-5.8 2.3-12 2.3-16.4-2.1-4.2-4.1-8.7-4.9-14-4.6-5.9.4-10.7-1.8-14.3-6.6-2.7-3.6-7.5-4.9-10.1-8.7-.7-1.1-1.8-.2-2.7.3-4 2.2-7.9.9-10.5-2-5.8-6.5-12.9-10.7-21.1-13.1-1.1-1-2.4-1.9-3.3-3-2.3-3.2-5-5.4-9.4-5.2-1.9.1-4.3-1.3-5.7-2.8-3.3-3.6-7.7-5.7-11.3-8.8-3.4-2.9-6.9-5.6-11.6-6.4-1.8-.3-4-1.4-5.1-2.9-3.5-4.7-9.6-6.3-13.2-10.1-5.5-5.8-13.7-8.1-18.1-14.9-.4-.6-1.2-1.4-1.9-1.4-6-.5-7-5-8.6-9.5-2.6-7.3-4.9-14.8-11.3-20.3-4.7-4-5.5-10.5-7.2-16.2-.8-2.7-1.6-5.3-3.7-7.5-3.6-3.9-3.2-9.3-4.8-14-.9-2.6-1.6-5-3.9-6.7-.6-.5-1.4-1.2-1.6-1.9-1.9-8.8-9.1-14.2-13.3-21.5-2.4-4.1-2.2-8.7-2.6-13.1l-5.4-70.1c-.1-1.6-.6-3.3-.9-4.9l-1-20.6c9.3 9.3 20.5 15.6 33.1 19.1 0 2.6.5 5 2.6 6.8 1.5 6.6 4.2 12.7 8.4 17.9 1.6 2 3.3 4 3.4 6.5.6 10 6.7 17.1 12.3 24.4 4.4 5.7 10.2 10.5 16.3 13.5 6.5 3.2 9.1 8.3 10.5 14 1.9 7.9 6.4 15 6.8 23.3 0 .7.2 2.9 2 1.5 4.1-3 7.7-1.6 11 1.3.8-3 1.4-5.8 2.1-8.5 2-7.4 4.8-14.6 5.4-22.2 1.2-15.6 3.2-31.1 6.1-46.4 1.1-5.7 3.6-8.1 9.6-9l81.9-11.9c4.6-.6 9.3-2.2 14.3-.4 19.2 6.8 38.5 6.8 57.6-.5 3-1.2 6-1.7 9.3-1.2l82.6 13.6c4.9.8 7.2 3.6 8.5 7.9 4.8 16.2 7.9 33 12.8 49.2 2.2 7.3 5.5 14.4 7.1 22 .2.9-.3 2.5 1.6 2.6 1.2-2.5 2-5.5 5.1-6.3 2.7-.7 3.5-2.5 4.1-5 1.3-5.5 2.5-11 4.3-16.4 1.4-4.2 4-7.1 8-8.2 5.4-1.4 9.6-4.6 13.4-8.4 3-2.9 6.1-5.5 9.6-7.9 6.1-4.3 10.1-10.2 11.1-17.7 1.3-9.4 2.3-18.8 8.4-26.6 2.6-1.7 3.9-4.2 4.6-7.1 11.6-3.5 22.5-8.3 32.1-15.9l.1 17-2.5 63.8c-.3 6.7-1 13.4-7.6 17.5-1.4.9-1 2.3-1.3 3.6-1.9 7.9-2.9 15.9-10.2 21.5-3 2.3-3.6 6.6-3.8 10.5-.4 9.6-4.4 15.3-13.2 18.4-1.9.7-3.1 1.7-3.9 3.5-2.3 5.3-5.2 10.4-7 16-1.3 4.1-3.9 7.7-7.7 9.5-8.3 3.9-11.1 11.8-15.1 18.9-1.5 2.6-2.7 5.3-4.2 7.9-.7 1.1-1.5 2.6-2.6 2.9-7.7 2.2-10.3 9.3-14.6 14.8-3.2 4.1-6.6 7.9-11.5 10-1.6.8-3.1 2.1-4 4zm-92.9-62c11.2 1.7 16.7-7.1 22.2-15.6 2.6-4 5.1-8.1 8.4-11.7 3.1-3.3 6.8-6.4 8.3-10.4 3-7.9 7.3-14.9 11.4-22.1 1.5-2.7 2.1-5.7 1.5-8.7l-7.7-39.6c-.5-2.6-1.8-3.3-4.1-4.1-6.1-2-12.4-.8-18.5-1.4-6-.6-11.8-2-17.9-2-5.9.1-12.1 2.8-17.9-.8-.4-.3-1.8.7-2.6 1.3-6.3 4-12.8 3.5-19.5 1.3-1.1-.3-2.4-.8-3.4-.5-7 2.5-13.6-1.3-20.5-1.1-5.1.1-10.3-2.3-15.5-.1a7.33 7.33 0 0 1-4.4.2c-2.6-.7-4.8.2-7.2.5-7.6.9-15.3 2.8-23.1.7-5.4-1.4-11-.4-16.3.3-3.7.5-7 1.4-10.6-.1-3.8-1.5-7.1.7-7.5 4.9l-3.2 34.7c-.3 3.3-.9 6.6-1.5 9.9-.9 5.5.5 10.1 3 15.2 3.1 6 4.5 12.9 8.5 18.6 3.8 5.4 6.8 11.2 11.7 15.9 5.8 5.5 13.4 7.8 20.1 11.6 4.7 2.6 10 2.5 15.4-1.1 4.5-3 7.2-6.6 9.4-11.1 1.6-3.2 3.8-6.2 7.9-5.9 4.5.3 9.1.4 13.2 1.8 3.8 1.2 6.7 1 9.8-1s6.4-2.6 9.8-.1c2.2 1.7 4.7 1.4 7.1.5 8-3.1 10-2.4 14.5 4.9.8 1.3 1.2 2.9 2.2 3.9 4.9 4.6 7.7 11.8 17 11.2z" fill="#79591f"/><path fill="#2e3335" d="M1595.1 542.1c-9.5 7.6-20.5 12.4-32.1 15.9-14.4 3.2-29.1 5.6-43.8 5.7-13.4.1-26.8.3-40.2-1.5-20.7-2.8-39.7-9-56.1-22.4-12.9-10.5-22.1-23.8-30.5-37.8-7.8-13.1-14-27.1-20.4-40.9l-4.3-11.7c-3.2-8.3-5.5-16.5-1.9-25.4.7-1.7.1-3.9.1-5.9 0-5.8-3.4-10.2-9.7-12.1-8.6-2.6-17.3-2.5-25.8.1-7.1 2.1-11.1 7.5-10.7 14 .4 1.8.4 3.7 1.1 5.3 3.1 6.3 2.5 12.4.1 18.7-2.5 6.6-4.6 13.3-6.9 20-.7 1.1-1.5 2.2-2 3.4-4.9 12.6-11.2 24.4-17.8 36.2-15.7 28.2-37.7 48.5-69.9 55.7-15 3.4-30.4 4.1-46 4.3-19.1.2-37.7-2.2-56.2-6.4-12.7-3.6-23.8-9.8-33.1-19.1-4.4-4.8-8.4-9.9-11-15.9-9-20.5-13.1-42.3-16-64.3-1.9-14.4-5.9-28.1-10.6-41.7-1.2-3.5-3.6-6.4-6.4-8.7-3.5-2.9-6.3-6.3-8-10.5 0-3.5-.2-6.9-.1-10.4.1-7.7 2.6-11.3 10-13.3 7.1-2 24.9-6.2 24.9-6.2l24.4-4c10.9-1.6 21.8-3.6 32.8-4 18.3-1.9 36.6-3.1 55-3 8.1.1 16.3.2 24.3 1.1 8.4.9 16.7 2.2 25.1 2.5 7.2.3 13.9 2.9 20.9 3.4l39.8 12.3c8.2 2.7 16.4 3.6 24.9 1.8 14.6-3.1 29.4-2.8 44.1-.9 6.1.8 12.1 2.9 18.2 1.6 7.6-1.6 15.1-3.6 22.4-6.4 9.4-3.7 19.3-6 29.1-8.3 5.6-1.5 11.2-2.6 17-3.2 13.9-1.5 27.8-4 41.9-3.8h46.4l15.2 1.7c10.7 1.3 21.5 2.2 32.3 3.2l23.3 4.2c9.2 1.8 18.4 3.3 27.6 5.4 14.7 3.4 16.8 6.4 16.5 21.5 0 .8-.1 1.7-.1 2.5-1.4 3.8-2.9 7.5-6.4 9.7-6.1 3.7-8.9 9.5-11.3 15.8-7 18.5-7.9 38.2-11.9 57.3-5.1 23.2-9.1 47.1-28.2 64.5zm-483.9-11.2c.3.4.6.7.9 1.1 4.2 3.1 8.8 5.3 13.7 6.8 25.7 8.3 52.1 10 78.7 6 15.8-2.4 31.2-6.9 44.1-16.9 19.9-15.4 32.1-36.2 39.1-59.9 5.1-17.2 8.8-34.7 7-52.9.3-4.4-1.5-8.1-3.8-11.6-4.9-7.5-12.6-11.1-20.5-14.3-24.9-10.3-51.5-12.5-77.9-14-24.2-1.4-48.4.9-72.4 4.9-8.8 1.5-17.2 3.8-23.5 10.8-.8.5-1.8.9-2.5 1.6-11.8 11.1-12.7 26-12.6 40.5.1 12 2.3 24 3.5 36 1.6 15.1 4.7 29.8 10.7 43.7 3.2 7.5 7.4 14.7 15.5 18.2h0zm473.1-146c-1.3-1.7-3.3-2.3-5.1-2.8-8.4-2.5-17.1-3.9-25.8-5.1-12.2-1.6-24.5-1.8-36.8-2.6-12-.7-24 .2-35.9 1-13.4.9-26.6 3.1-39.8 5.8-13.7 2.7-27.1 6.5-38.7 14.9-6.1 4.4-9.4 10.5-9.9 18.1-.7 7.3-.3 14.6.6 21.9 2.3 20.8 7.5 40.6 18.1 58.9 11.5 19.7 26.1 35.8 48.4 43.7 28.6 10.1 57.6 10 86.9 4.2 8.8-1.7 18-3.3 25.6-8.8 10.2-4.4 16.2-12.7 21-22.3 5-10.1 6.4-21.2 8.6-32 4.4-21.5 7.4-43.2 4.3-65.2-1.8-13.4-9-23.6-21.5-29.7z"/><path fill="#1f4768" d="M1643.1 897.9c-4 11.1-10.6 20.6-18.1 29.6-22.3 26.7-50.9 45.1-82.1 59.4-33.9 15.5-69.3 26.8-106 33.9a406.16 406.16 0 0 1-46.7 6.3c-3.1.2-6.1 1.4-10.5.3 19.3-2.5 37.2-5.4 54.7-10.3 18.9-5.4 37.4-11.5 54.9-20.6 17.1-8.9 34.3-17.4 49.7-29.4 23.2-18.1 42.3-39.3 54.1-66.5 3.6-8.2 5.5-16.9 7.8-25.5.1-.1 31.2 15.7 42.2 22.8z"/><path fill="#e9b688" d="M1595.1 542.1c19.1-17.4 23.1-41.3 28.1-64.8 4-19.1 4.9-38.8 11.9-57.3 2.4-6.3 5.2-12.1 11.3-15.8 3.6-2.2 5.1-5.9 6.4-9.7 0 6.3-1.6 11.8-6.9 15.7-1.4 1-1.8 1.9-1.2 3.7 2.7 8.5 2.8 17.4 3 26.1.4 20.9.2 41.9.1 62.8-.2 29.5-23.2 54-52.6 56.3l-.1-17z"/><path fill="#1f4768" d="M1085.2 875.1l5.8 18.9c5.6 17.2 15.3 31.9 27.1 45.4 22.4 25.8 50.5 43.4 81.2 58 22.5 10.7 45.8 18.3 69.9 23.9 11.5 2.7 23.3 4.1 35 6.7-7.5-.7-15.1-1.2-22.6-2.2-23.3-3.2-46.4-7.4-69-13.8-22.4-6.3-44.2-14-65.5-23.5-20.3-9.1-39-20.5-56.8-33.8-20.3-15.2-36.6-33.6-47.1-56.8 12-7.8 42-22.8 42-22.8z"/><path fill="#e9b688" d="M1037.1 397c1.7 4.3 4.4 7.6 8 10.5 2.9 2.3 5.2 5.3 6.4 8.7 4.7 13.6 8.7 27.2 10.6 41.7 2.9 21.9 7 43.8 16 64.3 2.6 6 6.6 11.1 11 15.9l1 20.6c-20-1.2-43.9-16.3-50-43.2-1.1-4.8-1.2-9.5-1.2-14.4v-75.8c0-5.1 3.2-10.1 2.5-14.5s-4.5-8.6-4.3-13.8z"/><path d="M1232.8 799.9c8.3 2.4 15.3 6.6 21.1 13.1 2.6 2.9 6.4 4.2 10.5 2 .9-.5 1.9-1.4 2.7-.3 2.6 3.8 7.4 5 10.1 8.7 3.6 4.8 8.4 7 14.3 6.6 5.3-.3 9.8.5 14 4.6 4.5 4.4 10.7 4.4 16.4 2.1 2.2-.9 3.6-.7 5.5.5 11 7.2 22.6 9.5 34.9 3.6 1.6-.8 2.9 0 4.3.4 6.1 1.6 11.7.8 16.2-3.7 2-2 4.4-1.1 6.4-1.8 7.7-2.7 15.6-2.8 23.6-2.8 7.1 0 13.1-3.8 15.5-11.3.8-2.6 2.1-3.7 4.8-4 4.9-.4 9.1-2.9 11.5-7.1 2.2-3.9 5.1-5.3 9.2-5.6l-.1 60.4c-.8 50.3-36.4 94.3-85.3 105.7-63.2 14.8-125.1-27.1-134.8-91.3-1.7-11.2-1.5-22.5-1.2-33.9.6-15.2.4-30.6.4-45.9zM1433 363c-9.8 2.3-19.6 4.7-29.1 8.3-7.3 2.8-14.8 4.8-22.4 6.4-6.2 1.3-12.2-.8-18.2-1.6-14.7-1.9-29.5-2.2-44.1.9-8.5 1.8-16.7.9-24.9-1.8-13.2-4.3-26.5-8.2-39.8-12.3 3.8-.5 8.8.3 10.1-4.5 1.3-4.6-2.7-7-5.9-9.5-4.7-3.7-9.9-6.7-15.5-9-19.6-8.1-40-11.4-61-7.8-20.4 3.5-38.7 11.5-53.3 26.8-11 .4-21.9 2.4-32.8 4-.7-11.5 2.5-22.4 4.9-33.4 5-23.1 9.1-46.4 17.9-68.5 7.4-18.5 17.6-35.4 31.4-50 2.6-2.8 6.7-2.7 9.2-5.8 3.8-4.6 7.3-9.5 10.5-14.6 1.5-2.3 2.4-3.8 5.8-2.7 3.4 1.2 6.5-.4 8.6-3.6 4.4-6.7 9.4-13 12.6-20.4.7-1.5 1.7-2.8 2.7-4.2 2.7-3.8 5.5-4.6 9.9-1.8 11.5 7.1 24.8 8.4 37.7 10.9 21.1 4.2 42.4 3 63.7 1.6 23.1-1.5 46-4.5 69.1-5.7 18.8-1 37.8-.8 56.3-5.7 8.9-2.4 17.3-5.9 25.8-9.3 5.4-2.1 11.1-.3 14.2 4.8 12.4 20.7 29.2 37.1 49.1 50.2 13.8 9.1 22.8 21.6 30.1 35.8 1.5 2.8 2.7 5.7 5.3 7.7.9.7 1.7 1.7 2 2.7 4.6 13.6 10.3 26.9 12.8 41.2 2.1 12.1 3.4 24.4 5.3 36.5 1.3 8.5 5.1 16.6 4.6 25.4-.1 2.1 0 4.3.1 6.5l-32.3-3.2-15.2-1.7c-11.2-11.4-25.4-17.1-40.2-21.9-14.4-4.6-29.3-4.1-43.9-1.7-15.1 2.4-29.7 7-42.1 16.6-3.2 2.5-7.5 5.4-5.5 10.1 1.9 4.6 6.7 3.7 10.9 3.5 5.2.1 10.4-1.2 15.6.8z" fill="#ecb889"/><path fill="#ebb889" d="M1365.8 418.1c0 2 .6 4.2-.1 5.9-3.6 8.8-1.4 17.1 1.9 25.4 1.5 3.9 2.9 7.8 4.3 11.7-2.1 2-.2 3.8.4 5.5 6.7 17.8 15.5 34.5 25.6 50.5 11.2 17.8 25.6 32 44.7 41.4 17.1 8.4 35.6 10.1 54 11.4 20.7 1.5 41.3-1 61.8-4.7-6.2 7.8-7.1 17.2-8.4 26.6-1.1 7.5-5.1 13.4-11.1 17.7-3.4 2.4-6.6 5-9.6 7.9-3.8 3.7-7.9 6.9-13.4 8.4-4 1.1-6.6 4-8 8.2-1.8 5.4-3.1 10.9-4.3 16.4-.6 2.4-1.4 4.2-4.1 5-3.1.8-3.9 3.8-5.1 6.3-1.9-.1-1.4-1.7-1.6-2.6-1.6-7.6-4.9-14.7-7.1-22-4.9-16.2-7.9-32.9-12.8-49.2-1.3-4.3-3.6-7.1-8.5-7.9l-82.6-13.6c-3.2-.5-6.2 0-9.3 1.2-19.1 7.3-38.4 7.2-57.6.5-5-1.8-9.6-.2-14.3.4l-81.9 11.9c-6 .9-8.5 3.2-9.6 9-2.9 15.4-4.8 30.9-6.1 46.4-.6 7.7-3.4 14.9-5.4 22.2l-2.1 8.5c-3.3-2.9-6.9-4.3-11-1.3-1.9 1.4-2-.8-2-1.5-.4-8.3-4.9-15.4-6.8-23.3-1.3-5.6-4-10.8-10.5-14-6.1-3-11.9-7.8-16.3-13.5-5.6-7.3-11.7-14.4-12.3-24.4-.1-2.4-1.8-4.4-3.4-6.5-4.2-5.2-6.9-11.3-8.4-17.9 16.4 3.4 32.9 5.9 49.7 6 13.3.1 26.4-1.1 39.6-2.8 28.5-3.8 51.4-17.3 68.6-39.9 13.4-17.7 23-37.6 31.1-58.3.6-1.4 2.3-3.3.2-4.9l6.9-20c2.4-6.3 3-12.4-.1-18.7-.8-1.6-.8-3.5-1.1-5.3 8.6-10.3 19.9-10.6 31.9-9.2 5.9.6 9.7 4.4 14.2 7.1zM1342.6 531h-44.9c-7 0-9.8 4.4-7.2 10.8 2.4 6.1 6.6 10.7 11.9 14.3 19.8 13.5 41.5 15 63.8 8.8 11.8-3.3 22.7-8.9 28.7-20.6 4.3-8.3 1.4-13.3-7.9-13.3h-44.4z"/><path fill="#e9b688" d="M1393 719.9c-9.3.6-12.1-6.6-16.9-11.1-1-1-1.4-2.6-2.2-3.9-4.5-7.4-6.4-8-14.5-4.9-2.5.9-4.9 1.2-7.1-.5-3.3-2.5-6.6-1.9-9.8.1s-6.1 2.2-9.8 1c-4.2-1.4-8.8-1.5-13.2-1.8-4.1-.3-6.2 2.7-7.9 5.9-2.3 4.5-5 8.1-9.4 11.1-5.4 3.6-10.8 3.7-15.4 1.1-6.7-3.8-14.3-6.1-20.1-11.6-4.9-4.6-7.9-10.5-11.7-15.9-4-5.7-5.5-12.6-8.5-18.6-2.6-5.1-4-9.7-3-15.2.6-3.3 1.1-6.6 1.5-9.9l3.2-34.7c.4-4.2 3.7-6.4 7.5-4.9 3.6 1.5 6.9.6 10.6.1 5.3-.7 10.9-1.8 16.3-.3 7.8 2.1 15.4.2 23.1-.7 2.4-.3 4.6-1.2 7.2-.5 1.4.4 3.1.4 4.4-.2 5.3-2.2 10.4.2 15.5.1 6.9-.2 13.5 3.6 20.5 1.1.9-.3 2.3.2 3.4.5 6.7 2.2 13.2 2.8 19.5-1.3.8-.5 2.1-1.6 2.6-1.3 5.8 3.5 12 .8 17.9.8 6.2-.1 12 1.4 17.9 2 6.2.6 12.4-.6 18.5 1.4 2.3.8 3.6 1.5 4.1 4.1l7.7 39.6c.6 3 .1 5.9-1.5 8.7-4.1 7.2-8.4 14.2-11.4 22.1-1.5 4-5.3 7.1-8.3 10.4-3.3 3.5-5.8 7.6-8.4 11.7-5.6 8.4-11.1 17.2-22.3 15.5zm-108.1-45.5c.2.4.4 1 .7 1.3 26.6 22 56.5 27.2 88.9 15.9 10-3.5 19.4-8.6 26.7-16.7 16-13.6 25.1-31.2 28.6-51.7 1.7-10.1-2.4-14.2-12.9-13.2H1274c-3.1-.1-6.3-.4-9.4-.1-5.3.5-9.2 5.2-8.5 10.4 3.2 21.4 12.1 39.8 28.8 54.1z"/><path d="M1314 464c2.1 1.7.4 3.5-.2 4.9-8 20.7-17.6 40.6-31.1 58.3-17.2 22.7-40 36.1-68.6 39.9-13.2 1.8-26.3 3-39.6 2.8-16.8-.1-33.3-2.6-49.7-6-2.1-1.8-2.6-4.2-2.6-6.8 18.5 4.2 37.1 6.6 56.2 6.4 15.5-.1 30.9-.9 46-4.3 32.1-7.2 54.2-27.6 69.9-55.7 6.6-11.8 12.9-23.6 17.8-36.2.4-1.1 1.2-2.1 1.9-3.3zm244.4 101.1c-20.4 3.7-41 6.2-61.8 4.7-18.4-1.3-36.9-3.1-54-11.4-19.1-9.3-33.4-23.6-44.7-41.4-10.1-16-19-32.7-25.6-50.5-.6-1.6-2.5-3.5-.4-5.5 6.4 13.8 12.6 27.8 20.4 40.9 8.4 14.1 17.7 27.3 30.5 37.8 16.4 13.4 35.4 19.6 56.1 22.4 13.4 1.8 26.9 1.7 40.2 1.5 14.7-.1 29.4-2.6 43.8-5.7-.5 3-1.9 5.5-4.5 7.2z" fill="#ba926d"/><path d="M1294.7 415.2c1.8 18.2-1.9 35.8-7 52.9-7 23.7-19.2 44.5-39.1 59.9-12.9 10-28.4 14.5-44.1 16.9-26.6 4-53 2.3-78.7-6-4.9-1.6-9.6-3.7-13.7-6.8-.3-.4-.6-.7-.9-1.1h.1c-3.1-7.2-3.6-14.7-3.3-22.4 0-.8 0-1.7-.1-2.5-1.8-11.1-2.3-22.4-3.5-33.6-2.8-25.7-4.6-51.6-6.7-77.4 4.7-2.4 8.8-5.8 14.2-7 19-4.3 38.2-6 57.5-6.9 24.9-1.1 49.7 1.5 74.1 6.1 15 2.8 29.6 7.2 42.3 16.5 4.1 3 5.5 7.9 8.9 11.4zm-42.9 37.2c-.5-2.4-2-4.8-3.5-7.2-17.8-27.8-59.6-33.4-84.7-11.3-5.2 4.6-9.5 9.7-12.5 16-.9 1.9-1.5 4 .3 5.5 1.9 1.6 4.1.9 5.9-.5.5-.4 1.1-.8 1.6-1.2 16.6-11.9 35.1-15.3 54.9-12.3 11.6 1.8 22 6.4 31.1 13.8 1.4 1.1 2.9 2.5 4.9 1.4 1.6-.8 2.2-2.2 2-4.2zm320.2 81.7c-7.7 5.5-16.8 7-25.6 8.8-29.2 5.8-58.3 5.9-86.9-4.2-22.3-7.9-36.9-24-48.4-43.7-10.7-18.2-15.8-38.1-18.1-58.9-.8-7.3-1.3-14.5-.6-21.9.4-.2 1.1-.4 1.3-.7 4-9.4 11.6-14.5 20.7-18.1 10.4-4.1 20.9-7.2 32-9 14.7-2.4 29.4-5.2 44.3-5.2 17.1 0 34.2-.7 51.4.9 14.4 1.3 28.7 2.9 42.3 8.1.3 9-1.9 17.8-2.2 26.7-.9 28.2-3.5 56.3-5.2 84.5-.5 8.1-.4 16.3-2.9 24.2-1 2.7-2.5 5.4-2.1 8.5zm-95.7-114c-20.4 1-37.7 9.3-48.6 28.8-1.2 2.2-2.6 4.7.1 6.7 2.2 1.7 4.3.2 6.3-1.2 27.2-19.3 59.9-19 86.9.7 1.6 1.1 3.2 2.9 5.3 1.2 2.3-1.8 1.9-4.1.7-6.3-.9-1.8-1.8-3.6-2.9-5.2-11.2-16.3-27.2-23.8-47.8-24.7z" fill="#ecb889"/><path fill="#79591f" d="M1572 534.1c-.4-3.1 1.1-5.8 2-8.6 2.5-7.9 2.4-16.1 2.9-24.2l5.2-84.5c.3-8.9 2.5-17.7 2.2-26.7l.1-5.1c12.5 6 19.7 16.3 21.6 29.7 3.1 21.9.1 43.6-4.3 65.2-2.2 10.9-3.6 21.9-8.6 32-4.9 9.5-10.9 17.8-21.1 22.2z"/><path d="M1433 363c-5.1-2-10.4-.8-15.6-.5-4.2.2-9 1.1-10.9-3.5-2-4.7 2.3-7.6 5.5-10.1 12.4-9.7 27-14.2 42.1-16.6 14.6-2.3 29.5-2.9 43.9 1.7 14.8 4.7 29.1 10.4 40.2 21.9h-46.4c-14.1-.2-28 2.3-41.9 3.8a117.44 117.44 0 0 0-16.9 3.3zm-304-4c14.6-15.3 33-23.4 53.3-26.8 21-3.6 41.3-.2 61 7.8 5.6 2.3 10.7 5.3 15.5 9 3.1 2.5 7.1 4.9 5.9 9.5-1.3 4.9-6.3 4-10.1 4.5-7.1-.6-13.8-3.1-20.9-3.4-8.4-.4-16.8-1.6-25.1-2.5-8.1-.9-16.2-1-24.3-1.1-18.7-.1-37 1.2-55.3 3z" fill="#5f4a37"/><path fill="#79591f" d="M1097.6 395l6.7 77.4c1.2 11.2 1.8 22.5 3.5 33.6.1.8.2 1.7.1 2.5-.4 7.7.1 15.2 3.3 22.4-8.1-3.5-12.4-10.7-15.5-18.1-5.9-13.9-9.1-28.7-10.7-43.7-1.3-12-3.5-24-3.5-36-.1-14.6.9-29.4 12.6-40.5.7-.7 1.6-1.1 2.5-1.6.3 1.3.7 2.7 1 4z"/><path d="M1097.6 395l-1-4.1c6.3-6.9 14.7-9.3 23.5-10.8 24-4.1 48.2-6.3 72.4-4.9 26.5 1.5 53 3.7 77.9 14 7.9 3.2 15.6 6.8 20.5 14.3 2.3 3.5 4 7.2 3.8 11.6-3.5-3.4-4.8-8.4-9-11.4-12.7-9.2-27.3-13.7-42.3-16.5-24.5-4.6-49.2-7.3-74.1-6.1-19.3.9-38.6 2.6-57.5 6.9-5.4 1.2-9.5 4.6-14.2 7zm486.7-10.1l-.1 5.1s-27.9-6.8-42.3-8.1c-17.1-1.6-34.2-.9-51.4-.9-14.9 0-29.6 2.9-44.3 5.2-11.1 1.8-21.6 4.9-32 9-9.1 3.6-16.7 8.7-20.7 18.1-.1.3-.8.5-1.3.7.5-7.6 3.8-13.7 9.9-18.1 11.6-8.3 25-12.1 38.7-14.9 13.2-2.6 26.4-4.9 39.8-5.8 11.9-.8 23.9-1.7 35.9-1 12.3.8 24.5 1 36.8 2.6 8.7 1.1 17.4 2.6 25.8 5.1 1.9.7 3.9 1.3 5.2 3zm-218.5 33.2c-4.6-2.7-8.4-6.5-14.2-7.2-12.1-1.4-23.4-1.1-31.9 9.2-.3-6.5 3.6-11.8 10.7-14 8.6-2.6 17.2-2.7 25.8-.1 6.2 2 9.6 6.3 9.6 12.1z" fill="#ba926d"/><path fill="#79591f" d="M1111.2 530.9l.9 1.1-.9-1.1z"/><path fill="#ba926d" d="M1342.6 531h44.4c9.3 0 12.2 5 7.9 13.3-6.1 11.7-17 17.3-28.7 20.6-22.3 6.2-44 4.8-63.8-8.8-5.3-3.6-9.5-8.2-11.9-14.3-2.5-6.4.3-10.8 7.2-10.8h44.9z"/><path fill="#47382a" d="M1417 610c10.4-1 14.6 3 12.9 13.2-3.5 20.5-12.5 38.1-28.6 51.7-.5-.6-1-1.4-1.6-1.9-16-13.3-33.8-16-53.2-8.6-1.8.7-3.4 1.5-5.6.6-20.6-8.6-39.3-5-56 9.5-16.7-14.3-25.6-32.7-28.7-54.2-.8-5.2 3.1-9.9 8.5-10.4 3.1-.3 6.3.1 9.4.2.7 13 9.8 22.4 22.6 22.5h97.7c12.9-.2 22.1-9.8 22.6-22.6z"/><path fill="#fc4f6c" d="M1284.9 674.4c16.7-14.5 35.4-18.1 56-9.5 2.2.9 3.7.1 5.6-.6 19.4-7.4 37.1-4.7 53.2 8.6.6.5 1.1 1.2 1.6 1.9-7.3 8.1-16.7 13.2-26.7 16.7-32.5 11.3-62.3 6.2-88.9-15.9-.4-.2-.6-.8-.8-1.2z"/><path fill="#fbfafa" d="M1417 610c-.5 12.9-9.7 22.4-22.5 22.5h-97.7c-12.8-.1-21.9-9.5-22.6-22.5H1417z"/><path d="M1251.8 452.4c.2 2.1-.4 3.5-1.8 4.3-2 1.2-3.5-.3-4.9-1.4-9.1-7.4-19.6-12-31.1-13.8-19.9-3.1-38.4.3-54.9 12.3-.5.4-1.1.8-1.6 1.2-1.9 1.4-4 2.1-5.9.5-1.8-1.5-1.2-3.6-.3-5.5 3-6.3 7.3-11.5 12.5-16 25-22.1 66.8-16.5 84.7 11.3 1.4 2.2 2.8 4.7 3.3 7.1zm224.5-32.3c20.6 1 36.6 8.4 47.8 24.8 1.1 1.6 2 3.4 2.9 5.2 1.1 2.2 1.5 4.6-.7 6.3-2.1 1.7-3.7-.1-5.3-1.2-27-19.7-59.6-20-86.9-.7-2 1.4-4.1 2.8-6.3 1.2-2.6-2-1.3-4.5-.1-6.7 10.9-19.6 28.2-27.9 48.6-28.9z" fill="#5f4a37"/><path fill="#2e3335" d="M779.1 1235.4h1128.2"/><path fill="#1f4768" d="M779.1 1225.9l1128.2.6c4.9 0 8.9 4 8.9 8.9s-4 8.9-8.9 8.9l-1128.2.6c-5.2 0-9.5-4.2-9.5-9.5 0-5.2 4.2-9.5 9.5-9.5h0z"/></svg>