<svg id="CF" xmlns="http://www.w3.org/2000/svg" viewBox="0 0 500 500">
    <style type="text/css">
        .st0 {
            fill: #3578AD;
        }

    </style>
    <path id="C" class="st0" d="M45.4 141.7c0.1-21.8 4.6-42.9 14.2-62.6 5.7-11.8 13-22.6 21.9-32.5C94.3 32.2 109.2 20.8 126.5 12.6 143.3 4.7 161.1 0 179.7 0l164.8 0c14.1 0 29.8 4.2 43.9 9.9 16.5 6.6 31 16.4 43.8 28.4 8.1 7.5 15 16.2 20.9 25.5 3 4.6 1.6 6.6-3.8 6.6l-68.1 0c-2.6 0-4.9-0.5-7.1-1.8 -14.7-8.5-30.8-11.2-47.5-11.2L189.2 57.6c-26.3 0.4-48.8 10.3-65.8 31.5 -10.8 13.5-17.2 28.4-18.8 45.8 -0.7 8.3-0.8 16.5-0.8 24.7l0 196.4c0.1 26 9.7 48.2 29.2 65.5 13.1 11.6 28.7 18.5 46.3 20.2 24.8 2.4 144.7 1.1 144.7 1.1 17.8 0.1 35-2.4 50.6-11.7 1.9-1.1 4-1.4 6.2-1.4l68.7 0c5.2 0 6.5 2 3.6 6.4 -6.9 10.1-14.4 19.6-23.6 27.9 -9.3 8.4-19.5 15.4-30.4 21.3 -11.4 6.2-23.6 9.9-36.3 12.7 -9.5 2.1-19.1 2.1-28.8 2.1L179.4 500c-16 0-31.1-3.7-45.9-9.6 -15.7-6.2-29.3-15.5-41.8-26.7 -24.1-21.6-38.2-48.7-44-80.1 -1.9-10.5-2.5-21.2-2.4-32L45.4 141.7z" />
    <path id="F" class="st0" d="M449.3 77.9c5.5 0.2 5.5 0.2 5.5 5.2l0 49.8c0 4.7 0 4.7-4.8 4.7l-95.7-0.2c-4.4 0-5.7 1-5.7 5.6l0 68.2c-0.1 4.7 1.4 5.6 5.8 5.5l44.4-0.2c3.4 0 4.2 1 4.2 4.3l0 50.9c0.1 4.1-1.5 4.6-5 4.6l-44.4-0.2c-4.2-0.1-5 1.3-4.9 5.2l0.2 141.7c0 4.7-1.1 6-5.9 5.9l-48.1 0c-5.1 0.1-5.7-1.7-5.7-6.1l0.2-140.7c0-5-1.4-6.2-6.2-6.1l-43.8 0.2c-3.3 0-4.3-0.8-4.3-4.2l0-51.4c0-3.5 1.2-4.1 4.4-4.1l45.4 0.2c3.6 0.1 4.5-1 4.5-4.5l0-69.8c0.1-4.4-1.6-4.8-5.3-4.8l-100.6 0.2c-5 0-5.9-1.4-5.8-6l0-48.7c-0.1-4 1-5.1 5.1-5.1C227.1 78.1 449.3 77.9 449.3 77.9z" />
</svg>
