<svg xmlns="http://www.w3.org/2000/svg" viewBox="0 0 708.9 712.4" xmlns:v="https://vecta.io/nano"><path d="M174 147.5h111.2l44.2 80.6v201.5H121.5V215.9l52.5-68.4" fill="#235278"/><path d="M10.5 246h210v132.9H9.9z" fill="#fefefe"/><path d="M335.2 695V220.4l-57.9-76.9 236.4 3.1 65.6 73.8v213.3H420.8V695z" fill="#3577ae"/><path d="M446 16.7h90.8v73.7H446z" fill="#ac3434"/><path d="M227.5 712.4c-7.9 0-13.9-5.2-14.9-12.6-1.1-8.6 2.7-15.3 10.4-17.5 2.3-.7 4.9-.7 7.4-.7l84.5.1c4 0 4.8-1.1 4.8-4.9l.1-221.4c0-4.8-2.3-4.4-5.4-4.4H120.5c-14.4 0-19.4-5-19.4-19.5l.1-37c.1-3.5-.8-4.4-4.3-4.4l-77.5.1C8.7 390.3 0 382 0 371.2V255.7c0-8.9 9.1-19.9 19.7-19.6l77 .2c3.5 0 4.7-.5 5.2-4.6 3.6-29.1 16.1-54 37.4-74.3 18.4-17.6 40.5-27.9 65.4-32.2 6.5-1.1 13.2-1.2 19.9-1.2l191.9.2c4.7 0 5.6-1.4 5.6-5.8L422 17.5c0-7.2 2.2-13 9.1-16.3 2.4-1.1 4.8-1.2 7.3-1.2h96.5C546 0 552 6 552 17.2l.1 73.5c.1 10-8 17.3-17.1 17.1l-77.5-.2c-3.7 0-4.7.9-4.6 4.6.2 12.7 0 12.9 12.7 12.6 16.7-.3 33.1 1.5 48.9 7.4 26 9.8 46.5 26.4 61.4 49.9 12.5 19.7 18.6 41.2 18.7 64.4v186.9c0 12.1-5.7 17.7-17.8 17.7l-140-.1c-4.3 0-5.9.7-5.9 5.5v219.9c0 4.4 1.1 5.4 5.5 5.4l83.5-.1c4 0 8-.1 11.5 2.3 6 4 8.5 10.8 6.5 17.9-1.7 6.2-7.6 10.6-14.6 10.6l-295.8-.1zm77.2-557.1c4.7 5.2 8.7 9.2 12.3 13.6 17.5 21 27.7 45.2 27.9 72.5l.1 173.4c0 3.4 0 5.4 4.6 5.4h208.9c3.9 0 4.6-1.3 4.6-4.9l-.2-170.9c-.3-31.4-14.8-56.1-40.4-74-20.2-14.2-43.2-17.1-67.1-15.9-2.6.1-2.4 1.7-2.4 3.4v87c0 7.4-4.2 13.3-10.6 15.3s-13.6-.2-17.5-5.4c-2.5-3.4-2.9-7.3-2.9-11.4l.1-82.5c0-4.8-.8-6.5-6.2-6.4l-82.9 1-28.3-.2zm9.3 89.6c0-4 0-8-.6-12-3.4-22.7-13.6-41.8-31.2-56.8-24.8-21.1-53.3-26.9-84.4-18.7-18.1 4.7-32.9 14.9-45.1 29.4-10.7 12.8-16.7 27.4-20.4 43.2-1.3 5.6-.6 6.3 5.2 6.3l73.5-.1c4.3 0 7.5 1.6 10.7 4.2 6.4 5.2 8.2 12.2 8.2 19.9l-1.1 115.3c-2 7.5-8.5 15-18 14.8-25-.5-50-.1-74.9-.3-3.6 0-5 .8-4.8 4.7a211.36 211.36 0 0 1 0 19.5c-.2 4.4.9 5.9 5.6 5.9h171.9c4.9 0 5.7-1.6 5.7-6l-.3-169.3zM203.7 375.3c8.7 0 10.1-1.3 10.1-10.1v-92.4c0-2.4.3-6.5-1.1-7.2-2.8-1.2-5.3 2.2-7.3 4.1l-78.6 75.8c-8.2 5.5-18 7.2-30.6-5.3l-76.4-74.3c-1.1-.6-2.1-1.9-3.5-1.4-1.6.7-1.5 2.3-1.5 3.8l.1 97.4c0 9.1.7 9.5 9.8 9.5l179 .1zm146.9 190.9l-.1 109.4c0 4.9 1.4 6.1 6.1 6 11.7-.3 23.3-.1 35-.1 8.9 0 8.9 0 8.9-8.8l.1-215.4c0-5-1.3-6.5-6.4-6.3-12.8.4-25.7.3-38.5 0-4.2-.1-5.3 1.1-5.3 5.3l.2 109.9zM114.5 251.3H34.6s-3.4-.2-4.1.8c-.8 1.7.9 3 2 4.1l20.6 19.6 56.4 54.4c4.2 4 6.7 4.1 10.9.1l76.3-73.3c1.3-1.3 2.9-2.5 2.1-4.6-.5-1.2-2.9-1-4.4-1l-79.9-.1zM487.3 76.5l29 .1c3.9.1 4.7-1.2 4.7-4.8-.2-12.3-.2-24.6 0-37 0-3.2-.9-4.3-4.2-4.3h-60c-3.1 0-3.9 1-3.9 4v38c-.1 3.5 1.4 4.1 4.4 4.1l30-.1z" fill="#010102"/><path d="M76.9 115.9c-.1 5.1-3.1 8.3-7.8 8.4-4.8.1-8.1-3.3-8.2-8.6v-25c0-6.5 0-6.5-6.7-6.5H32.7c-3.6-.1-6.9-1.3-8.6-4.8-1.5-2.9-1-5.8.9-8.3 2.4-3.2 6-3.8 9.7-3.8l22 .1c3.6.1 4.5-1.1 4.3-4.5V43.5c0-5 4-9.6 8.3-9 4.2.5 8 2.4 7.8 8.9l-.1 20c-.1 3.4 1.1 4.2 4.2 4.1l23-.1c6.4.1 10.8 3.7 10.8 8.5-.1 4.9-4.5 8.4-10.9 8.4l-23.5-.1c-2.8-.1-3.8.8-3.6 3.7l-.1 28z" fill="#3577ae"/><path d="M673.8 535.8c.1-14 2.6-11.5-11.5-11.6h-7c-3.2.2-4.6-2.2-5.1-4.4-.4-2 .4-4.2 2.9-5.3 2.9-1.4 15.2-1.1 15.2-1.1 4.3-.1 5.6.8 5.6-5.7l-.1-9c-.1-4 2.4-6.1 5.7-6.2s5.6 1.9 5.3 6c-.3 3.8.1 7.7-.1 11.5-.1 2.6.6 3.5 3.3 3.4 4.8-.2 9.7-.2 14.5 0 2.8.1 5.3 1.3 6.1 4.1.6 2.1.5 4.3-1.8 6.1-1.3 1-2.4.7-3.6.8-4.7.1-14-.1-14-.1-3 0-4.7 1.2-4.5 4.8l.1 15c.1 3.6-1.2 6.4-5.1 6.2-3.5-.2-6.2-2-5.9-6.3v-8.2z" fill="#235278"/></svg>